<svg width="16" height="16" xmlns="http://www.w3.org/2000/svg">

 <g>
  <title>Layer 1</title>
  <path fill="#ffffff" transform="translate(4, 4), scale(0.18)" d="M8.54 46.39L0 46.39L0 10.84L8.54 10.84L8.54 46.39ZM43.60 41.99Q41.63 44.19 37.82 45.53Q34.01 46.88 29.47 46.88Q22.49 46.88 18.31 42.60Q14.14 38.33 13.84 30.71L13.82 27.64Q13.82 22.39 15.67 18.47Q17.53 14.55 20.98 12.44Q24.44 10.33 28.98 10.33Q35.62 10.33 39.29 13.37Q42.97 16.41 43.58 22.44L35.33 22.44Q34.89 19.46 33.42 18.19Q31.96 16.92 29.27 16.92Q26.05 16.92 24.29 19.65Q22.53 22.39 22.51 27.47L22.51 29.61Q22.51 34.94 24.33 37.61Q26.15 40.28 30.05 40.28Q33.40 40.28 35.03 38.79L35.03 33.28L29.08 33.28L29.08 27.39L43.60 27.39L43.60 41.99Z"/>
  <path opacity="0.5" d="M16 1H5V4H16V1Z" fill="white"/>
  <path opacity="0.5" d="M3 1H0V14H3V1Z" fill="white"/>
  <path opacity="0.5" d="M16 6H13V14H16V6Z" fill="white"/>
 </g>
</svg>